<svg width="123" height="124" viewBox="0 0 123 124" fill="none" xmlns="http://www.w3.org/2000/svg">
<g clip-path="url(#clip0)">
<path d="M61.5 124C53.1947 124 45.1412 122.362 37.5681 119.133C30.2466 116.019 23.6574 111.545 18.029 105.847C12.3778 100.15 7.93917 93.5305 4.85045 86.1496C1.62444 78.4918 0 70.3728 0 62C0 53.6272 1.62444 45.5082 4.82757 37.8735C7.91629 30.4926 12.3549 23.8497 18.0061 18.1756C23.6574 12.4784 30.2238 8.00372 37.5452 4.88988C45.1412 1.63765 53.1947 0 61.5 0C69.8052 0 77.8588 1.63765 85.4319 4.86682C92.7533 7.98066 99.3426 12.4554 104.971 18.1525C110.622 23.8497 115.061 30.4695 118.15 37.8505C121.353 45.4851 122.977 53.6272 122.977 61.9769C122.977 70.3497 121.353 78.4688 118.15 86.1034C115.061 93.4844 110.622 100.127 104.971 105.801C99.3197 111.499 92.7533 115.973 85.4319 119.087C77.8588 122.362 69.8052 124 61.5 124ZM61.5 5.90476C30.8186 5.90476 5.85714 31.0692 5.85714 62C5.85714 92.9308 30.8186 118.095 61.5 118.095C92.1814 118.095 117.143 92.9308 117.143 62C117.143 31.0692 92.1814 5.90476 61.5 5.90476Z" fill="#C4C4C4"/>
<path d="M61.1338 55.8415C70.6361 55.8415 78.3392 48.1894 78.3392 38.75C78.3392 29.3106 70.6361 21.6585 61.1338 21.6585C51.6316 21.6585 43.9285 29.3106 43.9285 38.75C43.9285 48.1894 51.6316 55.8415 61.1338 55.8415Z" fill="#C4C4C4"/>
<path d="M74.7242 56.5566C71.1779 59.9241 66.396 62 61.1338 62C55.8715 62 51.0668 59.9241 47.5434 56.5566C36.8586 60.6622 29.3313 70.1191 29.3313 81.0521V94.4531H92.9591V81.0521C92.9591 70.1191 85.4318 60.6622 74.7242 56.5566Z" fill="#C4C4C4"/>
<rect width="38.3542" height="31.5228" transform="matrix(0.813556 0.581486 -0.575253 0.817976 93.4805 -4.26595)" fill="white"/>
<path d="M95.3284 23.8633H85.1243V18.0889H95.3284V7.80566H101.103V18.0889H111.307V23.8633H101.103V34.0146H95.3284V23.8633Z" fill="#C4C4C4"/>
</g>
<defs>
<clipPath id="clip0">
<rect width="123" height="124" fill="white"/>
</clipPath>
</defs>
</svg>
