<svg width="28" height="29" viewBox="0 0 28 29" fill="none" xmlns="http://www.w3.org/2000/svg">
<path d="M8.32715 9.83497V22.6851C8.32715 23.0763 8.68368 23.3963 9.11945 23.3963C9.55522 23.3963 9.91175 23.0763 9.91175 22.6851V9.83497C9.91175 9.44385 9.55522 9.12384 9.11945 9.12384C8.67576 9.12384 8.32715 9.44385 8.32715 9.83497Z" fill="#0054A6"/>
<path d="M13.2076 9.83497V22.6851C13.2076 23.0763 13.5642 23.3963 13.9999 23.3963C14.4357 23.3963 14.7922 23.0763 14.7922 22.6851V9.83497C14.7922 9.44385 14.4357 9.12384 13.9999 9.12384C13.5642 9.12384 13.2076 9.44385 13.2076 9.83497Z" fill="#0054A6"/>
<path d="M18.0249 9.83497V22.6851C18.0249 23.0763 18.3814 23.3963 18.8172 23.3963C19.253 23.3963 19.6095 23.0763 19.6095 22.6851V9.83497C19.6095 9.44385 19.253 9.12384 18.8172 9.12384C18.3735 9.12384 18.0249 9.44385 18.0249 9.83497Z" fill="#0054A6"/>
<path d="M1.58461 5.87396H26.4154C27.2869 5.87396 28 5.23394 28 4.45169C28 3.66945 27.2869 3.02943 26.4154 3.02943H1.58461C0.713073 3.02943 0 3.66945 0 4.45169C0 5.23394 0.713073 5.87396 1.58461 5.87396Z" fill="#0054A6"/>
<path d="M2.7572 5.09883V27.5777C2.7572 27.9546 2.92359 28.3173 3.22466 28.5804C3.51781 28.8436 3.92981 29 4.34181 29H23.4126C23.8325 29 24.2365 28.8507 24.5297 28.5804C24.8229 28.3173 24.9972 27.9475 24.9972 27.5777V5.3335C24.9972 4.55125 24.2841 3.91123 23.4126 3.91123C22.541 3.91123 21.8279 4.55125 21.8279 5.3335V26.1555H5.92642V5.09883C5.92642 4.31658 5.21334 3.67656 4.34181 3.67656C3.47028 3.67656 2.7572 4.30947 2.7572 5.09883Z" fill="#0054A6"/>
<path d="M11.1953 4.0819V2.1334H17.1692V4.18146C17.1692 4.7717 17.7001 5.24816 18.3577 5.24816C19.0153 5.24816 19.5462 4.7717 19.5462 4.18146V1.0667C19.5462 0.782246 19.4194 0.512016 19.1975 0.312898C18.9757 0.113781 18.6667 0 18.3577 0H10.0068C9.68989 0 9.38882 0.113781 9.16697 0.312898C8.94513 0.512016 8.81836 0.789357 8.81836 1.0667V4.0819C8.81836 4.67214 9.3492 5.1486 10.0068 5.1486C10.6644 5.1486 11.1953 4.67214 11.1953 4.0819Z" fill="#0054A6"/>
</svg>
