<?xml version="1.0" encoding="utf-8"?>
<!-- Generator: Adobe Illustrator 22.0.0, SVG Export Plug-In . SVG Version: 6.00 Build 0)  -->
<svg version="1.1" xmlns="http://www.w3.org/2000/svg" xmlns:xlink="http://www.w3.org/1999/xlink" x="0px" y="0px"
	 viewBox="0 0 1200 1200" style="enable-background:new 0 0 1200 1200;" xml:space="preserve">
<style type="text/css">
	.st0{fill:#0054A6;}
</style>
<g id="Layer_4">
</g>
<g id="Layer_3">
</g>
<g id="Layer_5">
	<g>
		<path class="st0" d="M391.8,537.8c-0.1,0-0.1,0-0.2,0c-10,0-19.4,3.5-26.4,9.9l-5.9,5.3c-14.7,13.3-14.8,35-0.3,48.4l201.6,185.5
			c7,6.5,16.5,10.1,26.5,10.1c0.1,0,0.1,0,0.2,0c10,0,19.4-3.5,26.4-9.9l203.6-183.9c7.1-6.4,11-15,11.1-24.1
			c0-9.2-3.8-17.8-10.8-24.2l-5.9-5.4c-7-6.5-16.5-10.1-26.5-10.1c-0.1,0-0.1,0-0.2,0c-10,0-19.4,3.5-26.4,9.9L635.1,660.9V270.2
			c0-23.8-21.3-43.2-47.4-43.2c-26.1,0-47.4,19.4-47.4,43.2v390l-122-112.3C411.2,541.4,401.8,537.9,391.8,537.8z"/>
		<path class="st0" d="M834.7,227H707.4v109.8h127.3c39.1,0,71,32.6,71,72.6v409.3c0,40-31.8,72.6-71,72.6H359.3
			c-39.1,0-71-32.6-71-72.6V409.4c0-40,31.8-72.6,71-72.6h106.1V227H359.3C261,227,181,308.8,181,409.4v409.3
			c0,100.6,80,182.4,178.3,182.4h475.4c98.3,0,178.3-81.8,178.3-182.4V409.4C1013,308.8,933,227,834.7,227z"/>
	</g>
</g>
</svg>
