<svg width="27" height="27" viewBox="0 0 27 27" fill="none" xmlns="http://www.w3.org/2000/svg">
<path d="M26.5707 3.30209C25.5555 2.28149 24.6078 1.13669 23.4306 0.296994C22.3506 0.0728941 21.8322 1.23929 21.0897 1.78469C22.3425 3.23999 23.8032 4.52519 25.1505 5.90219C25.7607 5.17589 27.2079 4.43069 26.5707 3.30209ZM25.9011 8.79929C25.0452 9.65789 24.1596 10.4949 23.3334 11.3859C23.3118 14.8284 23.3415 18.2709 23.3226 21.7161C23.3064 22.9851 22.194 24.111 20.925 24.1542C15.7032 24.1758 10.476 24.1758 5.25423 24.1569C3.84483 24.1191 2.71623 22.7691 2.82693 21.384C2.82423 16.3998 2.82423 11.4183 2.82693 6.43949C2.71893 5.05979 3.85293 3.73139 5.24613 3.68279C8.70483 3.63689 12.1662 3.68549 15.6222 3.65849C16.5186 2.84849 17.3475 1.96019 18.2061 1.10699C13.5999 1.10699 8.99913 1.08269 4.39293 1.12049C2.24373 1.15829 0.315932 3.03749 0.278132 5.19749C0.272732 11.0079 0.256532 16.8156 0.288932 22.626C0.297032 24.7185 2.07363 26.5329 4.13373 26.73H22.2291C24.1812 26.3871 25.8552 24.6834 25.8795 22.6557C25.9389 18.0387 25.893 13.4163 25.9011 8.79929ZM24.5214 6.53939C23.166 5.17589 21.7998 3.82049 20.4282 2.47049C17.4258 5.45129 14.418 8.42399 11.4318 11.421C12.7845 12.7818 14.1426 14.1372 15.5169 15.4791C18.522 12.5037 21.5244 9.52019 24.5214 6.53939ZM9.21243 17.6742C11.0511 17.1747 12.0312 16.8588 13.8699 16.3647C14.3613 16.2081 14.688 16.1136 14.9418 16.0137C13.6404 14.7744 12.1446 13.2462 10.8459 11.9961C10.2978 13.8888 9.75783 15.7815 9.21243 17.6742Z" fill="#C4C4C4"/>
</svg>
