<?xml version="1.0" encoding="utf-8"?>
<!-- Generator: Adobe Illustrator 22.0.0, SVG Export Plug-In . SVG Version: 6.00 Build 0)  -->
<svg version="1.1" id="Layer_1" xmlns="http://www.w3.org/2000/svg" xmlns:xlink="http://www.w3.org/1999/xlink" x="0px" y="0px"
	 viewBox="0 0 484 484" style="enable-background:new 0 0 484 484;" xml:space="preserve">
<style type="text/css">
	.st0{fill:#0054A6;}
</style>
<g id="Layer_1_1_">
	<g>
		<path class="st0" d="M109.5,190.3l79.7-79.7c7.4-7.4,7.4-19.5,0-26.9l-10.1-10.1c-7.4-7.4-19.5-7.4-26.9,0l-79.7,79.7
			c-7.4,7.4-7.4,19.5,0,26.9l10.1,10.1C90.1,197.7,102.1,197.7,109.5,190.3z"/>
		<path class="st0" d="M432,426.2v-87.4c0-4.3-5.3-6.5-8.5-3.4l-89.4,87.4c-3.1,3-0.9,8.3,3.5,8.3H427
			C429.8,431,432,428.9,432,426.2z"/>
		<path class="st0" d="M409.3,302.7L225,118.4c-8-8-21.1-8-29.1,0l-77.5,77.5c-8,8-8,21.1,0,29.1l184.3,184.3c8,8,21.1,8,29.1,0
			l77.5-77.5C417.3,323.8,417.3,310.7,409.3,302.7z"/>
	</g>
</g>
<g id="Master_Layer_3">
</g>
</svg>
