<svg width="184" height="36" viewBox="0 0 184 36" fill="none" xmlns="http://www.w3.org/2000/svg">
<path d="M62.5379 20.7225L61.7193 23.2398H70.3239L69.0294 27.2128H55.1396L60.4827 10.9028H74.0325L72.7543 14.804H64.4721L63.7732 16.98H70.7533L69.5205 20.7225H62.5379ZM38.0375 25.3579L43.2685 30.5889L38.0375 35.825L32.804 30.5889L32.809 30.5864L20.3234 18.0982L20.3385 18.0856L20.3284 18.0756L27.5465 10.6396L23.3204 6.54191L11.9631 18.2544L23.4942 29.788L27.7682 25.5115L32.9966 30.7451L27.7392 36L22.5926 30.8509L17.7116 35.7343L12.4831 30.5033L12.4907 30.4982L0 18.0101L0.0151106 17.995L0.0100744 17.9899L12.3068 5.3179L12.2993 5.30782L17.451 0L22.7487 5.14412L27.4785 0.268225L32.6894 5.32546L37.7743 0.0868899L43.0821 5.2436L37.9305 10.5514L33.6175 6.36435L22.2526 18.0768L33.7862 29.608L38.0375 25.3579ZM17.5996 10.4545L13.2966 6.27872L1.93172 17.9861L13.4654 29.5173L17.3691 25.6186L10.0326 18.2745L10.0427 18.2645L10.0326 18.2569L17.5996 10.4545ZM82.2417 10.9028H76.9767L71.6311 27.2128H84.5411L85.9578 22.8797H78.3153L82.2417 10.9028ZM58.5447 10.9028H42.6628L41.2562 15.1893H46.6434L42.6993 27.2141H47.9719L51.9084 15.1893H57.1343L58.5447 10.9028ZM136.806 10.9028L134.291 18.5893C134.053 19.321 133.894 19.9657 133.805 20.5437L133.766 20.817L133.483 19.5439C133.457 19.3625 133.442 19.1787 133.428 18.991C133.408 18.7996 133.379 18.6309 133.324 18.4798L131.042 10.9028H126.042L120.698 27.2128H125.694L128.184 19.5691C128.412 18.8739 128.57 18.2241 128.665 17.6147L128.709 17.3464C128.778 17.6587 128.837 17.9547 128.891 18.2292C129.05 19.1522 129.139 19.6358 129.144 19.6799L131.461 27.2128H136.457L141.804 10.9028H136.806ZM178.34 27.2141L178.371 25.0595H172.259L170.86 27.2141H166.57L166.271 26.4195L177.299 10.904H182.637L183.564 27.2141H178.34ZM178.465 21.628L178.301 15.9827L174.447 21.628H178.465ZM171.093 10.9028H164.754L157.382 16.3L159.149 10.9028H153.941L148.598 27.2128H153.796L155.503 22.0171L157.696 20.6785L160.092 27.2141H165.707L166.271 26.4195L162.695 16.9132L171.093 10.9028ZM121.164 18.1385C121.105 18.3539 121.011 18.6649 120.867 19.0691C119.984 21.7161 118.516 23.8065 116.488 25.3415C114.459 26.8741 112.108 27.641 109.429 27.641C107.137 27.641 105.436 27.0479 104.334 25.8578C103.229 24.6766 102.836 23.0472 103.154 20.9769C103.234 20.4317 103.392 19.7932 103.63 19.0691C104.498 16.4675 105.963 14.3859 108.03 12.8168C110.089 11.2591 112.44 10.4734 115.07 10.4734C117.366 10.4734 119.068 11.0614 120.17 12.2325C121.28 13.3999 121.672 15.0244 121.355 17.0933C121.279 17.5781 121.215 17.9244 121.164 18.1385ZM115.981 17.4787C116.115 16.5858 116.04 15.9084 115.743 15.4374C115.391 14.8669 114.721 14.576 113.735 14.576C112.486 14.576 111.448 15.0269 110.604 15.9398C109.949 16.6639 109.394 17.7053 108.938 19.0679C108.854 19.326 108.774 19.5892 108.705 19.8612C108.636 20.1345 108.577 20.3989 108.542 20.6545C108.403 21.5474 108.477 22.2274 108.774 22.6983C109.127 23.2688 109.802 23.5572 110.788 23.5572C112.018 23.5572 113.05 23.1076 113.888 22.2034C114.563 21.4743 115.124 20.4304 115.575 19.0679C115.782 18.4357 115.917 17.9056 115.981 17.4787ZM145.185 10.9028L139.837 27.2128H145.224L150.572 10.9028H145.185ZM105.123 10.9028H89.2482L87.8353 15.1893H93.2225L89.281 27.2141H94.5548L98.4913 15.1893H103.715L105.123 10.9028Z" fill="#0054A6"/>
</svg>
