<svg width="53" height="53" viewBox="0 0 53 53" fill="none" xmlns="http://www.w3.org/2000/svg">
<path d="M26.5 53C22.9213 53 19.4511 52.3 16.1879 50.9198C13.0331 49.5889 10.1938 47.6763 7.7686 45.2413C5.33352 42.8062 3.42094 39.9767 2.09003 36.822C0.699963 33.5489 0 30.0787 0 26.5C0 22.9213 0.699963 19.4511 2.08017 16.1879C3.41109 13.0331 5.32366 10.1938 7.75874 7.7686C10.1938 5.33352 13.0233 3.42095 16.178 2.09003C19.4511 0.699963 22.9213 0 26.5 0C30.0787 0 33.5489 0.699963 36.8121 2.08017C39.9669 3.41109 42.8062 5.32366 45.2314 7.75874C47.6665 10.1938 49.5791 13.0233 50.91 16.178C52.2902 19.4412 52.9901 22.9213 52.9901 26.4901C52.9901 30.0688 52.2902 33.5391 50.91 36.8023C49.5791 39.957 47.6665 42.7963 45.2314 45.2215C42.7963 47.6566 39.9669 49.5692 36.8121 50.9001C33.5489 52.3 30.0787 53 26.5 53ZM26.5 2.52381C13.2796 2.52381 2.52381 13.2796 2.52381 26.5C2.52381 39.7204 13.2796 50.4762 26.5 50.4762C39.7204 50.4762 50.4762 39.7204 50.4762 26.5C50.4762 13.2796 39.7204 2.52381 26.5 2.52381Z" fill="#F2A268"/>
<path d="M26.3423 23.8678C30.4367 23.8678 33.756 20.5971 33.756 16.5625C33.756 12.5279 30.4367 9.25726 26.3423 9.25726C22.2478 9.25726 18.9286 12.5279 18.9286 16.5625C18.9286 20.5971 22.2478 23.8678 26.3423 23.8678Z" fill="#F2A268"/>
<path d="M32.1983 24.1734C30.6702 25.6127 28.6098 26.5 26.3423 26.5C24.0748 26.5 22.0045 25.6127 20.4862 24.1734C15.8823 25.9282 12.6388 29.9702 12.6388 34.6432V40.3711H40.0556V34.6432C40.0556 29.9702 36.8121 25.9282 32.1983 24.1734Z" fill="#F2A268"/>
</svg>
